<svg width="64" height="64" viewBox="0 0 64 64" fill="none" xmlns="http://www.w3.org/2000/svg">
  <rect width="64" height="64" rx="16" fill="#0B0F1F"/>
  <path d="M19 24C19 17.9249 23.9249 13 30 13H47V21H31C26.5817 21 23 24.5817 23 29V29C23 33.4183 26.5817 37 31 37H42C48.0751 37 53 41.9249 53 48V48C53 54.0751 48.0751 59 42 59H19V51H41C45.4183 51 49 47.4183 49 43V43C49 38.5817 45.4183 35 41 35H30C23.9249 35 19 30.0751 19 24V24Z" fill="url(#paint0_linear)"/>
  <circle cx="16" cy="45" r="4" fill="url(#paint1_linear)"/>
  <defs>
    <linearGradient id="paint0_linear" x1="19" y1="13" x2="53" y2="59" gradientUnits="userSpaceOnUse">
      <stop stop-color="#E0F2FE"/>
      <stop offset="0.55" stop-color="#60A5FA"/>
      <stop offset="1" stop-color="#A855F7"/>
    </linearGradient>
    <linearGradient id="paint1_linear" x1="12" y1="41" x2="20" y2="49" gradientUnits="userSpaceOnUse">
      <stop stop-color="#34D399"/>
      <stop offset="1" stop-color="#38BDF8"/>
    </linearGradient>
  </defs>
</svg>
